<svg width="30" height="30" viewBox="0 0 30 30" fill="none" xmlns="http://www.w3.org/2000/svg">
<circle cx="15.0034" cy="15" r="15" fill="white"/>
<path d="M12.0056 11.6192C12.0056 13.1349 10.9355 14.3636 9.61549 14.3636C8.29547 14.3636 7.2251 13.1349 7.2251 11.6192C7.2251 10.1036 8.29547 8.87484 9.61549 8.87484C10.9355 8.87484 12.0056 10.1036 12.0056 11.6192Z" fill="#21214D"/>
<path d="M22.7825 11.6192C22.7825 13.1349 21.7124 14.3636 20.3923 14.3636C19.0721 14.3636 18.002 13.1349 18.002 11.6192C18.002 10.1036 19.0721 8.87484 20.3923 8.87484C21.7124 8.87484 22.7825 10.1036 22.7825 11.6192Z" fill="#21214D"/>
<path d="M10.0227 10.8047C10.0227 11.284 9.63423 11.6724 9.15526 11.6724C8.67603 11.6724 8.2876 11.284 8.2876 10.8047C8.2876 10.3255 8.67603 9.93708 9.15526 9.93708C9.63423 9.93708 10.0227 10.3255 10.0227 10.8047Z" fill="white"/>
<path d="M20.7993 10.8047C20.7993 11.284 20.4109 11.6724 19.9316 11.6724C19.4524 11.6724 19.064 11.284 19.064 10.8047C19.064 10.3255 19.4524 9.93708 19.9316 9.93708C20.4109 9.93708 20.7993 10.3255 20.7993 10.8047Z" fill="white"/>
<path d="M15.0034 25.5103C17.8087 25.5103 19.7543 24.6412 21.1626 23.5533C22.5741 22.4629 23.4486 21.1513 24.1138 20.2515C24.6902 19.4735 24.7061 18.7489 24.521 18.2027H24.52V18.2007C24.4954 18.1233 24.4642 18.0482 24.4292 17.9752L24.4282 17.9742C24.3016 17.7034 24.1278 17.4879 23.9644 17.3482C23.8827 17.2784 23.8064 17.2288 23.7417 17.2007C23.6782 17.1733 23.6371 17.1712 23.6167 17.1754C22.1136 17.8675 20.346 18.1644 18.7651 18.2886C17.1802 18.4132 15.7728 18.3648 15.0034 18.3648C14.2339 18.3648 12.8272 18.4131 11.2427 18.2886C9.66165 18.1644 7.89329 17.8677 6.39014 17.1754C6.36962 17.1714 6.32905 17.1735 6.26611 17.2007C6.20137 17.2288 6.12425 17.2783 6.04248 17.3482C5.87917 17.488 5.70611 17.7036 5.57959 17.9742L5.57861 17.9752C5.54363 18.0482 5.51269 18.1232 5.48779 18.2007L5.48682 18.2027C5.30165 18.7488 5.31696 19.4735 5.89307 20.2515C6.55841 21.1513 7.43369 22.4629 8.84521 23.5533C10.2534 24.6411 12.1984 25.5102 15.0034 25.5103Z" fill="#21214D" stroke="#21214D" stroke-width="0.195656"/>
<path d="M7.92942 20.2177C9.81234 21.4233 12.2898 22.1545 15.0034 22.1545C16.8776 22.1545 18.6393 21.8057 20.1694 21.1926C21.1158 20.8137 21.9738 20.3338 22.7153 19.7729C22.9551 19.5916 23.1823 19.402 23.3965 19.2045C23.6107 19.0073 23.8118 18.802 23.9991 18.5896C24.0376 18.546 24.0754 18.502 24.1127 18.4577C24.1206 18.4485 24.1285 18.4393 24.1364 18.43L24.1476 18.416C24.185 18.371 24.2217 18.3257 24.2578 18.2802L24.2689 18.2665L24.2749 18.2586C24.3591 18.1514 24.44 18.0427 24.5172 17.9325C24.367 17.6114 24.153 17.3628 23.959 17.2179C23.9001 17.1736 23.843 17.1389 23.7903 17.1147C23.7902 17.1148 23.7902 17.1148 23.7901 17.1149C23.7702 17.1062 23.7513 17.099 23.7331 17.0931C23.7178 17.0882 23.703 17.0842 23.6888 17.0813C23.676 17.0787 23.6636 17.0767 23.6515 17.0755L23.6512 17.0761L23.6515 17.0751C23.6267 17.0751 23.606 17.0752 23.5852 17.0815L23.5852 17.0817C20.8939 18.3262 17.3218 18.2891 15.5177 18.2703C15.325 18.2683 15.1525 18.2665 15.0034 18.2665C14.8541 18.2665 14.6812 18.2683 14.4884 18.2703C13.6714 18.2788 12.4931 18.2911 11.1981 18.1866C9.63169 18.06 7.89476 17.7627 6.42107 17.0815C6.40457 17.0769 6.38633 17.0749 6.36659 17.0755L6.35527 17.0755L6.35506 17.0751C6.31364 17.0793 6.2662 17.0916 6.21647 17.1145L6.21708 17.1157L6.2169 17.1158L6.21635 17.1147C5.9885 17.2183 5.68604 17.5144 5.48926 17.9329C5.5286 17.9888 5.56986 18.0447 5.61129 18.1006L5.61151 18.1002L5.61135 18.1008C5.65278 18.1567 5.69423 18.2106 5.73771 18.2665C5.75063 18.2825 5.76357 18.2987 5.77656 18.3149C5.80729 18.3534 5.83837 18.3922 5.87038 18.4301C5.8928 18.4566 5.91526 18.4825 5.93764 18.5084L5.93778 18.5086C5.96085 18.5354 5.98391 18.5621 6.007 18.5895C6.1955 18.8028 6.39671 19.0081 6.61008 19.2049C6.81446 19.3915 7.02823 19.5726 7.25479 19.7445C7.26721 19.754 7.27966 19.7635 7.29213 19.7729C7.35944 19.8238 7.4277 19.8741 7.4969 19.9236C7.63724 20.0243 7.78101 20.122 7.92942 20.2177Z" fill="white"/>
</svg>
