<svg width="30" height="31" viewBox="0 0 30 31" fill="none" xmlns="http://www.w3.org/2000/svg">
<circle cx="14.9998" cy="15.0647" r="14.9998" fill="white"/>
<path d="M14.9999 24.8053H17.9598C18.8926 24.8053 19.3306 23.9637 18.6331 23.5116L18.572 23.472C16.5344 22.1517 13.4657 22.1517 11.428 23.472L11.3667 23.5116C10.6692 23.9637 11.1074 24.8053 12.0403 24.8053H14.9999Z" fill="#21214D"/>
<path d="M10.6577 16.2953C10.8977 16.1873 11.1335 16.0671 11.3485 15.9153C12.0507 15.4186 12.4953 14.5765 12.5091 13.7166C12.5112 13.5979 12.5047 13.4758 12.4559 13.3676C12.3364 13.1031 11.9881 13.0037 11.7093 13.0845C11.4306 13.1654 11.2126 13.3817 11.032 13.6092C10.8515 13.8364 10.6929 14.0855 10.4719 14.2739C10.2797 14.4377 10.0483 14.5488 9.81429 14.6443C9.12116 14.9268 8.29158 15.0771 7.6514 14.6889C7.5207 14.6096 7.40332 14.5107 7.28488 14.4139C6.98644 14.1695 6.66713 13.9303 6.29278 13.8377C5.91817 13.7451 5.47338 13.8343 5.2472 14.1466C5.05937 14.4059 5.05964 14.7679 5.18303 15.0635C5.30616 15.3588 5.53599 15.5973 5.78199 15.802C6.59069 16.4743 7.6467 16.8534 8.69723 16.8064C9.37602 16.7761 10.0381 16.5742 10.6577 16.2953Z" fill="#21214D"/>
<path d="M19.3425 16.2953C19.1025 16.1873 18.8666 16.0671 18.6517 15.9153C17.9494 15.4186 17.5049 14.5765 17.4911 13.7166C17.489 13.5979 17.4955 13.4758 17.5443 13.3676C17.6638 13.1031 18.012 13.0037 18.2906 13.0845C18.5695 13.1654 18.7876 13.3817 18.9681 13.6092C19.1486 13.8364 19.3072 14.0855 19.5282 14.2739C19.7205 14.4377 19.9519 14.5488 20.1859 14.6443C20.879 14.9268 21.7086 15.0771 22.3487 14.6889C22.4794 14.6096 22.5969 14.5107 22.7153 14.4139C23.0137 14.1695 23.333 13.9303 23.7074 13.8377C24.082 13.7451 24.5268 13.8343 24.7529 14.1466C24.9408 14.4059 24.9405 14.7679 24.8171 15.0635C24.694 15.3588 24.4642 15.5973 24.2182 15.802C23.4095 16.4743 22.3534 16.8534 21.3029 16.8064C20.6241 16.7761 19.9621 16.5742 19.3425 16.2953Z" fill="#21214D"/>
<path opacity="0.3" d="M8.64664 9.05117C9.6403 8.34133 10.4344 7.90047 11.0141 8.26569C11.5937 8.63091 11.6044 9.88257 10.7514 10.337C9.89832 10.7914 7.46673 12.2249 4.07226 11.3309C3.55182 11.2302 4.24235 10.001 5.66384 10.026C7.08533 10.0514 8.29238 9.29769 8.64664 9.05117Z" fill="#21214D"/>
<path opacity="0.3" d="M21.3537 9.05117C20.36 8.34133 19.5659 7.90047 18.9863 8.26569C18.4066 8.63091 18.3959 9.88257 19.249 10.337C20.102 10.7914 22.5336 12.2249 25.9281 11.3309C26.4485 11.2302 25.758 10.001 24.3365 10.026C22.915 10.0514 21.7079 9.29769 21.3537 9.05117Z" fill="#21214D"/>
</svg>
