<svg width="31" height="31" viewBox="0 0 31 31" fill="none" xmlns="http://www.w3.org/2000/svg">
<circle cx="15.7995" cy="15.0649" r="14.9997" fill="white"/>
<path d="M11.6185 24.7664L11.6328 24.774C12.0865 24.9725 12.7353 24.7685 13.1907 24.3921C13.8009 23.8824 14.4935 23.4785 15.2292 23.1806C15.8263 22.9116 16.4931 22.6993 17.2073 22.5634C17.9245 22.4267 18.6228 22.3792 19.2805 22.4118C20.0709 22.4192 20.8603 22.5406 21.6116 22.7884C22.1735 22.9717 22.8518 22.9226 23.2008 22.5715L23.2147 22.5585C23.5619 22.2154 23.3347 21.6063 22.6209 21.2968C21.0518 20.6186 19.2427 20.3867 17.4367 20.5742C17.241 20.6019 17.0443 20.6329 16.8458 20.6707C16.6467 20.7086 16.4519 20.7521 16.2591 20.7983C14.511 21.2877 12.914 22.1682 11.7072 23.3749C11.1539 23.9257 11.1661 24.5755 11.6185 24.7664Z" fill="#21214D"/>
<path d="M12.8019 12.2557C12.8019 13.7714 11.7318 15 10.4118 15C9.09157 15 8.02148 13.7714 8.02148 12.2557C8.02148 10.74 9.09157 9.51132 10.4118 9.51132C11.7318 9.51132 12.8019 10.74 12.8019 12.2557Z" fill="#21214D"/>
<path d="M23.5783 12.2557C23.5783 13.7714 22.5082 15 21.1879 15C19.8679 15 18.7979 13.7714 18.7979 12.2557C18.7979 10.74 19.8679 9.51132 21.1879 9.51132C22.5082 9.51132 23.5783 10.74 23.5783 12.2557Z" fill="#21214D"/>
<path d="M10.8188 11.4412C10.8188 11.9204 10.4304 12.3088 9.95115 12.3088C9.47193 12.3088 9.0835 11.9204 9.0835 11.4412C9.0835 10.9622 9.47193 10.5735 9.95115 10.5735C10.4304 10.5735 10.8188 10.9622 10.8188 11.4412Z" fill="white"/>
<path d="M21.5957 11.4412C21.5957 11.9204 21.2072 12.3088 20.728 12.3088C20.2488 12.3088 19.8604 11.9204 19.8604 11.4412C19.8604 10.9622 20.2488 10.5735 20.728 10.5735C21.2072 10.5735 21.5957 10.9622 21.5957 11.4412Z" fill="white"/>
</svg>
