<svg width="31" height="31" viewBox="0 0 31 31" fill="none" xmlns="http://www.w3.org/2000/svg">
<circle cx="15.1999" cy="15.0649" r="14.9997" fill="white"/>
<path d="M10.8659 14.0726C11.1059 13.9646 11.3415 13.8444 11.5564 13.6926C12.2587 13.1961 12.7035 12.3538 12.7173 11.4939C12.7191 11.3752 12.7126 11.2532 12.6638 11.1449C12.5446 10.8804 12.1963 10.781 11.9175 10.8619C11.6386 10.9427 11.4205 11.159 11.24 11.3865C11.0597 11.614 10.9011 11.8628 10.6802 12.0512C10.4879 12.215 10.2565 12.3261 10.0225 12.4216C9.32938 12.7041 8.49982 12.8544 7.85964 12.4662C7.72895 12.3872 7.61129 12.288 7.49312 12.1912C7.19443 11.9468 6.87538 11.7076 6.50078 11.615C6.12643 11.5224 5.68164 11.6116 5.45521 11.9239C5.26738 12.1832 5.26764 12.5453 5.39104 12.8408C5.51443 13.1361 5.74399 13.3748 5.99025 13.5793C6.79869 14.2516 7.85495 14.6306 8.90521 14.5837C9.58399 14.5534 10.2463 14.3515 10.8659 14.0726Z" fill="#21214D"/>
<path d="M19.5504 14.0726C19.3104 13.9646 19.0748 13.8444 18.8599 13.6926C18.1576 13.1961 17.7128 12.3538 17.699 11.4939C17.6972 11.3752 17.7037 11.2532 17.7525 11.1449C17.8717 10.8804 18.22 10.781 18.4988 10.8619C18.7777 10.9427 18.9958 11.159 19.1763 11.3865C19.3566 11.614 19.5154 11.8628 19.7361 12.0512C19.9284 12.215 20.1598 12.3261 20.3938 12.4216C21.0869 12.7041 21.9165 12.8544 22.5566 12.4662C22.6873 12.3872 22.805 12.288 22.9232 12.1912C23.2219 11.9468 23.5409 11.7076 23.9155 11.615C24.2899 11.5224 24.7346 11.6116 24.9611 11.9239C25.1489 12.1832 25.1486 12.5453 25.0253 12.8408C24.9019 13.1361 24.6723 13.3748 24.426 13.5793C23.6176 14.2516 22.5613 14.6306 21.5111 14.5837C20.8323 14.5534 20.17 14.3515 19.5504 14.0726Z" fill="#21214D"/>
<path opacity="0.3" d="M8.85436 6.82859C9.84827 6.11877 10.6424 5.6779 11.222 6.04312C11.8014 6.40834 11.8124 7.65999 10.9593 8.11442C10.106 8.56886 7.67445 10.0023 4.28027 9.10834C3.75984 9.00764 4.45036 7.77842 5.87158 7.80347C7.29305 7.82877 8.5001 7.07512 8.85436 6.82859Z" fill="#21214D"/>
<path opacity="0.3" d="M21.5623 6.82859C20.5684 6.11877 19.7743 5.6779 19.1949 6.04312C18.6152 6.40834 18.6043 7.65999 19.4573 8.11442C20.3106 8.56886 22.7422 10.0023 26.1364 9.10834C26.6568 9.00764 25.9663 7.77842 24.545 7.80347C23.1236 7.82877 21.9165 7.07512 21.5623 6.82859Z" fill="#21214D"/>
<path d="M21.9841 23.4374C21.5059 24.2555 19.732 24.3368 19.2008 23.5968C18.064 22.1909 16.1555 22.4529 15.2064 22.4529C14.261 22.4529 12.3522 22.1909 11.2156 23.5968C10.6845 24.3368 8.91058 24.2555 8.43241 23.4374C8.11023 22.8778 7.41971 22.0034 8.57771 20.261L8.58476 20.2503C8.77232 20.0202 8.96719 19.8008 9.16911 19.5919C10.8298 17.8602 12.9261 16.8262 15.2064 16.8262C17.4869 16.8262 19.5867 17.8602 21.2476 19.5919C21.4493 19.8008 21.6441 20.0202 21.8317 20.2503L21.8388 20.261C22.9968 22.0034 22.3062 22.8778 21.9841 23.4374Z" fill="#21214D"/>
<path d="M9.52301 20.9408C9.93388 21.5891 11.2051 21.2348 11.7362 20.9408C13.0922 20.1123 14.5972 20.2081 15.2381 20.2081C15.8791 20.2081 17.3241 20.1123 18.6801 20.9408C19.2112 21.2348 20.4827 21.5891 20.8933 20.9408C21.0031 20.7668 21.1147 20.5524 21.1852 20.3056C21.2394 20.1162 21.3495 19.6965 21.199 19.5418C21.0114 19.3487 20.8187 19.1646 20.6204 18.9898C20.4221 18.8148 20.2189 18.6494 20.0107 18.4936C18.5924 17.4324 16.9523 16.8261 15.2063 16.8261C13.4606 16.8261 11.8226 17.4321 10.4053 18.4936C10.1974 18.6491 9.99388 18.8147 9.79588 18.9895C9.59762 19.1646 9.40484 19.3487 9.21701 19.5418C9.06675 19.6965 9.17684 20.1162 9.23084 20.3056C9.30153 20.5524 9.41318 20.7668 9.52301 20.9408Z" fill="white"/>
<path d="M9.52301 20.9408C9.93388 21.5891 11.2051 21.2348 11.7362 20.9408C13.0922 20.1123 14.5972 20.2081 15.2381 20.2081C15.8791 20.2081 17.3241 20.1123 18.6801 20.9408C19.2112 21.2348 20.4827 21.5891 20.8933 20.9408C21.0031 20.7668 21.1147 20.5524 21.1852 20.3056C21.2394 20.1162 21.3495 19.6965 21.199 19.5418C21.0114 19.3487 20.8187 19.1646 20.6204 18.9898C20.4221 18.8148 20.2189 18.6494 20.0107 18.4936C18.5924 17.4324 16.9523 16.8261 15.2063 16.8261C13.4606 16.8261 11.8226 17.4321 10.4053 18.4936C10.1974 18.6491 9.99388 18.8147 9.79588 18.9895C9.59762 19.1646 9.40484 19.3487 9.21701 19.5418C9.06675 19.6965 9.17684 20.1162 9.23084 20.3056C9.30153 20.5524 9.41318 20.7668 9.52301 20.9408Z" fill="white"/>
<path d="M9.52296 20.9406C9.91612 21.5625 11.1036 21.2614 11.6675 20.9762C11.6594 20.9069 11.6498 20.8358 11.6418 20.7617C11.0665 21.0469 9.85491 21.3854 9.4408 20.8038C9.46819 20.8521 9.49557 20.8971 9.52296 20.9406Z" fill="white"/>
<path d="M9.4408 20.8038C9.85491 21.3854 11.0665 21.0469 11.6418 20.7617C11.6321 20.6876 11.6241 20.6118 11.616 20.5328C11.0214 20.8196 9.81786 21.1452 9.36189 20.6505C9.38772 20.7037 9.41341 20.7538 9.4408 20.8038Z" fill="white"/>
<path d="M9.36189 20.6505C9.81786 21.1452 11.0214 20.8196 11.616 20.5328C11.6079 20.4539 11.6014 20.3734 11.5951 20.2896C10.9796 20.578 9.78887 20.8908 9.29101 20.4847C9.31187 20.5427 9.33612 20.5973 9.36189 20.6505Z" fill="white"/>
<path d="M9.29101 20.4847C9.78887 20.8908 10.9796 20.578 11.5951 20.2896C11.5886 20.2058 11.5839 20.1206 11.5806 20.0336C10.9554 20.322 9.74849 20.6714 9.22967 20.3057C9.24741 20.3669 9.26844 20.4267 9.29101 20.4847Z" fill="white"/>
<path d="M11.6675 20.9762C11.6918 20.965 11.7144 20.9533 11.7354 20.9405C11.7304 20.8696 11.7257 20.7956 11.7192 20.7199C11.6968 20.7329 11.6659 20.7488 11.6418 20.7617C11.6498 20.8358 11.6594 20.9069 11.6675 20.9762Z" fill="white"/>
<path d="M11.6418 20.7617C11.666 20.7489 11.6965 20.7327 11.719 20.7198C11.7143 20.6441 11.7094 20.5668 11.7063 20.4862C11.6757 20.5008 11.6466 20.5167 11.616 20.5328C11.6241 20.6118 11.6321 20.6876 11.6418 20.7617Z" fill="white"/>
<path d="M11.616 20.5328C11.6466 20.5167 11.6757 20.5008 11.7063 20.4862C11.7013 20.4057 11.6982 20.3221 11.6966 20.2367C11.6611 20.2544 11.6306 20.2703 11.5951 20.2896C11.6017 20.3734 11.6079 20.4539 11.616 20.5328Z" fill="white"/>
<path d="M11.5951 20.2896C11.6306 20.2703 11.6611 20.2544 11.6966 20.2367C11.6935 20.1529 11.6936 20.0641 11.6936 19.9755C11.6549 19.9948 11.6176 20.0142 11.5806 20.0336C11.5837 20.1206 11.5886 20.2058 11.5951 20.2896Z" fill="white"/>
<path d="M11.7354 20.9405C13.0904 20.1139 14.592 20.2075 15.2348 20.2075C15.2348 20.1447 15.2348 20.0785 15.2348 20.0108C14.5678 20.0108 13.0646 19.9207 11.7192 20.7199C11.7257 20.7956 11.7304 20.8696 11.7354 20.9405Z" fill="white"/>
<path d="M11.7192 20.7199C13.0646 19.9207 14.5678 20.0108 15.2348 20.0108C15.2348 19.9432 15.2321 19.874 15.2321 19.8015C14.5135 19.8015 13.0312 19.7451 11.7051 20.4862C11.7083 20.5668 11.7132 20.6441 11.7179 20.7199L11.7192 20.7199Z" fill="white"/>
<path d="M11.706 20.4863C13.0321 19.7451 14.5144 19.8015 15.233 19.8015C15.233 19.7291 15.233 19.6532 15.233 19.5758C14.4612 19.5758 13.0014 19.5568 11.6963 20.2367C11.699 20.3221 11.7011 20.4058 11.706 20.4863Z" fill="white"/>
<path d="M11.6966 20.2367C13.0017 19.5568 14.4614 19.5758 15.2332 19.5758C15.2332 19.4984 15.2332 19.4196 15.2306 19.3391C14.4363 19.3391 12.9894 19.3228 11.6923 19.9755C11.6923 20.0641 11.6924 20.1528 11.6955 20.2366L11.6966 20.2367Z" fill="white"/>
<path d="M15.2348 20.2075C15.2374 20.2075 15.2374 20.2075 15.238 20.2075C15.238 20.1447 15.238 20.0785 15.238 20.0108C15.2353 20.0108 15.2348 20.0108 15.2348 20.0108C15.2348 20.0785 15.2348 20.1447 15.2348 20.2075Z" fill="white"/>
<path d="M15.2348 20.0108C15.2348 20.0108 15.2374 20.0108 15.238 20.0108C15.238 19.9432 15.238 19.8739 15.238 19.8014C15.2353 19.8014 15.2348 19.8015 15.233 19.8015C15.233 19.874 15.2357 19.9432 15.2357 20.0108L15.2348 20.0108Z" fill="white"/>
<path d="M15.233 19.8015C15.2356 19.8015 15.2361 19.8014 15.238 19.8014C15.238 19.7289 15.238 19.6531 15.238 19.5758C15.2353 19.5758 15.2348 19.5758 15.233 19.5758C15.233 19.6532 15.233 19.7291 15.233 19.8015Z" fill="white"/>
<path d="M15.2332 19.5758C15.2358 19.5758 15.2363 19.5757 15.2381 19.5757C15.2381 19.4984 15.2381 19.4196 15.2381 19.3391C15.2355 19.3391 15.235 19.3391 15.2316 19.3391C15.2343 19.4196 15.2342 19.4984 15.2342 19.5757L15.2332 19.5758Z" fill="white"/>
<path d="M15.238 20.2075C15.8792 20.2075 17.3229 20.1124 18.6796 20.9405C18.6942 20.8745 18.7085 20.807 18.723 20.7345C17.3728 19.9256 15.9066 20.0108 15.238 20.0108C15.238 20.0785 15.238 20.1447 15.238 20.2075Z" fill="white"/>
<path d="M15.238 20.0108C15.9066 20.0108 17.3728 19.9256 18.723 20.7345C18.7376 20.6636 18.752 20.5909 18.7649 20.5152C17.426 19.7451 15.9662 19.8014 15.238 19.8014C15.238 19.8739 15.238 19.9432 15.238 20.0108Z" fill="white"/>
<path d="M15.238 19.8014C15.9662 19.8014 17.426 19.7451 18.7649 20.5152C18.7795 20.4395 18.7923 20.3606 18.8036 20.2817C17.476 19.5518 16.0258 19.5774 15.238 19.5758C15.238 19.6531 15.238 19.7289 15.238 19.8014Z" fill="white"/>
<path d="M15.238 19.5758C16.0258 19.5784 17.476 19.5517 18.8036 20.2817C18.8149 20.2011 18.826 20.1189 18.8342 20.0335C17.513 19.323 16.0534 19.3407 15.2381 19.3391C15.2381 19.4196 15.238 19.4984 15.238 19.5758Z" fill="white"/>
<path d="M18.6796 20.9405C19.2113 21.2354 20.4826 21.5882 20.8935 20.9405C20.9209 20.897 20.9483 20.852 20.9741 20.8037C20.5471 21.4063 19.2692 21.0277 18.723 20.7345C18.7085 20.807 18.6942 20.8745 18.6796 20.9405Z" fill="white"/>
<path d="M18.723 20.7345C19.2692 21.0277 20.5471 21.4063 20.9741 20.8037C21.0015 20.7538 21.0287 20.7037 21.0529 20.6505C20.5888 21.1581 19.3433 20.8069 18.7649 20.5152C18.752 20.5909 18.7376 20.6636 18.723 20.7345Z" fill="white"/>
<path d="M18.765 20.5154C19.3435 20.807 20.5888 21.1581 21.0529 20.6505C21.0787 20.5973 21.1029 20.5428 21.1255 20.4848C20.6244 20.8941 19.4143 20.5701 18.8036 20.2817C18.7924 20.3606 18.7795 20.4397 18.765 20.5154Z" fill="white"/>
<path d="M18.8036 20.2817C19.4143 20.5701 20.6244 20.8941 21.1255 20.4848C21.1463 20.4268 21.1674 20.3668 21.1852 20.3056C20.6664 20.6714 19.4594 20.3235 18.8342 20.0335C18.826 20.1189 18.8149 20.2011 18.8036 20.2817Z" fill="white"/>
<path d="M9.22988 20.3057C9.73581 20.6617 10.8976 20.3397 11.534 20.0545C11.5098 19.7725 11.4534 19.2585 11.5533 19.0087C10.8685 19.2923 9.80833 19.663 9.21702 19.5422C9.06718 19.6968 9.17682 20.1155 9.22988 20.3057Z" fill="white"/>
<path d="M11.5338 20.0544C11.55 20.0479 11.5661 20.0417 11.5806 20.0336C11.5628 19.7484 11.5112 19.2312 11.616 18.9798C11.5951 18.9895 11.574 18.9989 11.5531 19.0086C11.4531 19.2584 11.5096 19.7724 11.5338 20.0544Z" fill="white"/>
<path d="M11.5806 20.0336C12.9034 19.323 14.4083 19.3391 15.2284 19.3391C15.2258 19.0716 15.2259 18.5737 15.2254 18.3417C14.2699 18.3417 12.889 18.3915 11.6161 18.9796C11.5114 19.231 11.5628 19.7484 11.5806 20.0336Z" fill="white"/>
<path d="M15.2284 19.3391C15.231 19.3391 15.2311 19.3391 15.2316 19.3391C15.2343 19.0716 15.2366 18.5737 15.2366 18.3417C15.2334 18.3417 15.2285 18.3417 15.2254 18.3417C15.228 18.5737 15.2279 19.0716 15.2284 19.3391Z" fill="white"/>
<path d="M15.2316 19.3391C15.2348 19.3391 15.2366 19.3391 15.2381 19.3391C15.2408 19.0716 15.2406 18.5737 15.238 18.3417C15.238 18.3417 15.2379 18.3417 15.2353 18.3417C15.2353 18.5737 15.2321 19.0716 15.2303 19.3391H15.2316Z" fill="white"/>
<path d="M15.2381 19.3391C16.0534 19.3417 17.513 19.3229 18.8342 20.0335C18.8729 19.758 18.9454 19.2521 18.8616 19.0104C17.5774 18.3965 16.2031 18.3433 15.238 18.3417C15.2406 18.5737 15.2408 19.0716 15.2381 19.3391Z" fill="white"/>
<path d="M18.8342 20.0335C19.4594 20.3235 20.6664 20.6714 21.1852 20.3056C21.2383 20.1155 21.3495 19.6968 21.198 19.5421C20.6082 19.6629 19.5464 19.2924 18.8616 19.0104C18.9454 19.2521 18.8729 19.758 18.8342 20.0335Z" fill="white"/>
<path d="M9.21668 19.5422C9.80799 19.663 10.8683 19.2922 11.5531 19.0086C11.6562 18.7283 11.7608 18.4544 11.8703 18.1902C11.184 18.4721 10.5153 18.8024 9.7951 18.9893C9.59692 19.165 9.40359 19.3488 9.21668 19.5422Z" fill="white"/>
<path d="M11.5533 19.0087C11.7837 18.8991 12.019 18.8074 12.2542 18.7301C12.3138 18.469 12.3783 18.2161 12.4427 17.9745C12.2494 18.0389 12.0592 18.1129 11.8707 18.1902C11.7611 18.4545 11.6564 18.7283 11.5533 19.0087Z" fill="white"/>
<path d="M12.2542 18.7301C13.3337 18.3772 14.4278 18.3417 15.2254 18.3417C15.2254 18.071 15.2227 17.8083 15.2227 17.5553C14.2833 17.5527 13.3343 17.6698 12.4416 17.9744C12.3772 18.216 12.3127 18.4689 12.2531 18.73L12.2542 18.7301Z" fill="white"/>
<path d="M15.225 18.3417C15.2282 18.3417 15.2331 18.3417 15.2362 18.3417C15.2336 18.071 15.2313 17.8082 15.2297 17.5553C15.2271 17.5553 15.2248 17.5553 15.2232 17.5553C15.2232 17.8082 15.2258 18.071 15.2258 18.3417H15.225Z" fill="white"/>
<path d="M15.2366 18.3417C15.2392 18.3417 15.239 18.3417 15.239 18.3417C15.239 18.071 15.2364 17.8082 15.2359 17.5553C15.2332 17.5553 15.2327 17.5553 15.2309 17.5553C15.2335 17.8082 15.2359 18.071 15.2375 18.3417H15.2366Z" fill="white"/>
<path d="M15.238 18.3417C16.0226 18.3443 17.0798 18.377 18.1383 18.7218C18.0787 18.4608 18.0191 18.2096 17.9547 17.968C17.0814 17.6715 16.1533 17.5585 15.2349 17.5553C15.2375 17.8082 15.238 18.071 15.238 18.3417Z" fill="white"/>
<path d="M18.1383 18.7218C18.38 18.8007 18.6215 18.896 18.8616 19.0104C18.7601 18.7284 18.654 18.4545 18.546 18.1919C18.3511 18.1113 18.1545 18.0356 17.9547 17.968C18.0191 18.2096 18.0787 18.4608 18.1383 18.7218Z" fill="white"/>
<path d="M18.8616 19.0104C19.5464 19.2924 20.6082 19.6629 21.198 19.5421C21.011 19.3487 20.8178 19.1649 20.6196 18.9893C19.8994 18.804 19.2308 18.4722 18.546 18.1919C18.654 18.4545 18.7601 18.7284 18.8616 19.0104Z" fill="white"/>
<path d="M9.79542 18.9893C10.7155 18.7509 11.5485 18.279 12.4427 17.9745C12.4636 17.9116 12.4846 17.8502 12.5055 17.7889C11.6242 18.0902 10.833 18.5752 9.94522 18.8604C9.89529 18.9023 9.84538 18.9458 9.79542 18.9893Z" fill="white"/>
<path d="M9.94522 18.8604C10.833 18.5752 11.6242 18.0902 12.5055 17.7889C12.5264 17.7277 12.5474 17.6682 12.5683 17.6086C11.716 17.9018 10.912 18.3481 10.0967 18.7348C10.0451 18.7751 9.99517 18.8169 9.94522 18.8604Z" fill="white"/>
<path d="M10.0967 18.7348C10.912 18.3481 11.716 17.9018 12.5683 17.6086C12.5892 17.5473 12.6101 17.4893 12.6326 17.4313C11.8077 17.7181 10.994 18.1241 10.2496 18.6123C10.1981 18.6526 10.1466 18.6929 10.0967 18.7348Z" fill="white"/>
<path d="M10.2496 18.6123C10.994 18.1241 11.8077 17.7181 12.6326 17.4313C12.6535 17.3716 12.6745 17.3136 12.697 17.2572C11.8866 17.5408 11.118 17.9597 10.4042 18.493C10.3527 18.5317 10.3012 18.572 10.2496 18.6123Z" fill="white"/>
<path d="M12.4424 17.9744C13.3366 17.6699 14.2888 17.5536 15.2297 17.5553C15.2271 17.4924 15.2249 17.4298 15.2233 17.3686C14.2936 17.366 13.3832 17.4877 12.5051 17.789C12.4842 17.8502 12.4633 17.9116 12.4424 17.9744Z" fill="white"/>
<path d="M12.5055 17.7889C13.3836 17.4876 14.2939 17.3669 15.2236 17.3685C15.221 17.3057 15.2205 17.2443 15.2171 17.1831C14.3131 17.1831 13.4158 17.3153 12.5683 17.6086C12.5474 17.6682 12.5264 17.7277 12.5055 17.7889Z" fill="white"/>
<path d="M12.5683 17.6086C13.4158 17.3153 14.3131 17.1831 15.2171 17.1831C15.2145 17.1234 15.2141 17.0623 15.2123 17.0027C14.3326 17.0027 13.4463 17.1461 12.6326 17.4313C12.6101 17.4893 12.5892 17.5473 12.5683 17.6086Z" fill="white"/>
<path d="M12.6326 17.4313C13.4463 17.1461 14.3326 17.0027 15.2123 17.0027C15.2097 16.9431 15.2073 16.885 15.2057 16.8254C14.3373 16.8254 13.4978 16.9752 12.697 17.2572C12.6745 17.3136 12.6535 17.3716 12.6326 17.4313Z" fill="white"/>
<path d="M15.2299 17.5553C15.2299 17.4925 15.2299 17.4298 15.2299 17.3686C15.2273 17.3686 15.2251 17.3685 15.2236 17.3685C15.2262 17.4297 15.2284 17.4925 15.2299 17.5553Z" fill="white"/>
<path d="M15.2236 17.3685C15.2262 17.3685 15.2284 17.3686 15.2299 17.3686C15.2273 17.3058 15.2274 17.2443 15.2274 17.1831C15.2242 17.1831 15.2209 17.1831 15.2162 17.1831C15.2193 17.2443 15.2211 17.3057 15.2227 17.3685H15.2236Z" fill="white"/>
<path d="M15.2171 17.1831C15.222 17.1831 15.225 17.1831 15.2281 17.1831C15.2281 17.1234 15.2281 17.0623 15.2281 17.0027C15.2216 17.0027 15.2185 17.0027 15.212 17.0027C15.2146 17.0623 15.2152 17.1234 15.2171 17.1831Z" fill="white"/>
<path d="M15.2123 17.0027C15.2188 17.0027 15.2216 17.0027 15.2281 17.0027C15.2281 16.9431 15.2283 16.885 15.2283 16.8254C15.2202 16.8254 15.2136 16.8254 15.2057 16.8254C15.2083 16.885 15.2107 16.9431 15.2123 17.0027Z" fill="white"/>
<path d="M15.2299 17.5553C16.1516 17.5584 17.0798 17.6715 17.9547 17.968C17.9354 17.9051 17.9142 17.8438 17.8933 17.7826C17.0313 17.4909 16.1403 17.3702 15.2299 17.3686C15.2299 17.4298 15.2299 17.4925 15.2299 17.5553Z" fill="white"/>
<path d="M15.2299 17.3686C16.1403 17.3712 17.0313 17.4909 17.8933 17.7826C17.8724 17.7229 17.8515 17.6618 17.8306 17.6021C16.9976 17.3169 16.1162 17.1863 15.2284 17.1831C15.2284 17.2443 15.2285 17.3057 15.2311 17.3685L15.2299 17.3686Z" fill="white"/>
<path d="M15.2284 17.1831C16.1162 17.1863 16.9976 17.3169 17.8306 17.6021C17.8097 17.5425 17.7886 17.4844 17.7677 17.4248C16.9637 17.1461 16.0937 17.0059 15.2284 17.0027C15.2284 17.0623 15.2284 17.1234 15.2284 17.1831Z" fill="white"/>
<path d="M15.2284 17.0027C16.0937 17.0059 16.9637 17.1461 17.7677 17.4248C17.7452 17.3668 17.7243 17.3087 17.7017 17.2523C16.9122 16.9768 16.0822 16.8286 15.2283 16.8254C15.2283 16.885 15.2284 16.9431 15.2284 17.0027Z" fill="white"/>
<path d="M17.9547 17.968C18.8553 18.2725 19.6948 18.7508 20.6196 18.9893C20.5697 18.9458 20.5197 18.9024 20.4697 18.8605C19.5771 18.5753 18.7811 18.0855 17.8933 17.7826C17.9142 17.8438 17.9354 17.9051 17.9547 17.968Z" fill="white"/>
<path d="M17.8933 17.7826C18.7811 18.0855 19.5771 18.5753 20.4697 18.8605C20.4198 18.8186 20.3698 18.7752 20.3182 18.7349C19.4965 18.3466 18.6894 17.897 17.8306 17.6021C17.8515 17.6618 17.8724 17.7229 17.8933 17.7826Z" fill="white"/>
<path d="M17.8306 17.6021C18.6894 17.897 19.4965 18.3466 20.3182 18.7349C20.2683 18.693 20.2169 18.6526 20.1653 18.6124C19.4161 18.1226 18.5959 17.7132 17.7677 17.4248C17.7886 17.4844 17.8097 17.5425 17.8306 17.6021Z" fill="white"/>
<path d="M17.7677 17.4248C18.5959 17.7132 19.4161 18.1226 20.1653 18.6124C20.1138 18.5721 20.062 18.5317 20.0104 18.4931C19.2934 17.9565 18.5186 17.5359 17.7017 17.2523C17.7243 17.3087 17.7452 17.3668 17.7677 17.4248Z" fill="white"/>
</svg>
